<svg width="20" height="21" viewBox="0 0 20 21" fill="none" xmlns="http://www.w3.org/2000/svg">
<path d="M18.1908 0.799561H1.80916C0.81 0.799561 0 1.60956 0 2.60872V18.9903C0 19.9896 0.81 20.7996 1.80916 20.7996H18.1908C19.19 20.7996 20 19.9896 20 18.9903V2.60872C20 1.60956 19.19 0.799561 18.1908 0.799561ZM6.18885 18.0689C6.18885 18.3597 5.95314 18.5954 5.66236 18.5954H3.4212C3.13042 18.5954 2.89471 18.3597 2.89471 18.0689V8.67406C2.89471 8.38328 3.13042 8.14757 3.4212 8.14757H5.66236C5.95314 8.14757 6.18885 8.38328 6.18885 8.67406V18.0689ZM4.54178 7.26197C3.36592 7.26197 2.41267 6.30872 2.41267 5.13286C2.41267 3.957 3.36592 3.00375 4.54178 3.00375C5.71764 3.00375 6.67089 3.957 6.67089 5.13286C6.67089 6.30872 5.7177 7.26197 4.54178 7.26197ZM17.901 18.1113C17.901 18.3786 17.6843 18.5954 17.417 18.5954H15.012C14.7447 18.5954 14.528 18.3786 14.528 18.1113V13.7046C14.528 13.0472 14.7208 10.8239 12.81 10.8239C11.3279 10.8239 11.0272 12.3457 10.9669 13.0286V18.1113C10.9669 18.3786 10.7502 18.5954 10.4828 18.5954H8.15681C7.88948 18.5954 7.67272 18.3786 7.67272 18.1113V8.63165C7.67272 8.36433 7.88948 8.14757 8.15681 8.14757H10.4828C10.7501 8.14757 10.9669 8.36433 10.9669 8.63165V9.45129C11.5164 8.62652 12.3332 7.98993 14.0722 7.98993C17.9231 7.98993 17.901 11.5876 17.901 13.5644V18.1113Z" fill="white"/>
</svg>
